<mxfile host="Electron" modified="2025-10-05T16:12:45.326Z" agent="Mozilla/5.0 (Windows NT 10.0; Win64; x64) AppleWebKit/537.36 (KHTML, like Gecko) draw.io/23.1.5 Chrome/120.0.6099.109 Electron/28.1.0 Safari/537.36" etag="OkRow5gGc_jOsAR05cCM" version="23.1.5" type="device">
  <diagram name="Страница — 1" id="rEhi51XHjkcPiLmPpWCE">
    <mxGraphModel dx="3160" dy="2567" grid="1" gridSize="10" guides="1" tooltips="1" connect="1" arrows="1" fold="1" page="1" pageScale="1" pageWidth="827" pageHeight="1169" math="0" shadow="0">
      <root>
        <mxCell id="0" />
        <mxCell id="1" parent="0" />
        <mxCell id="Ogy-xrGR_8rFZ8SFeMyS-3" value="Задача &lt;b&gt;условного оператора&lt;/b&gt;&lt;br&gt;изменить порядок действий в зависимости от выполнения некоторого условия.&amp;nbsp;&lt;br&gt;&lt;br&gt;Синтаксис условного оператора&lt;i&gt;:&lt;/i&gt;&lt;br&gt;&lt;b&gt;if &lt;/b&gt;{условие}&lt;b&gt;:&amp;nbsp;&lt;/b&gt;&lt;br&gt;*отступ* блок кода, который&lt;br&gt;&lt;span style=&quot;&quot;&gt;&lt;span style=&quot;white-space: pre;&quot;&gt;&amp;nbsp;&amp;nbsp;&amp;nbsp;&amp;nbsp;&lt;/span&gt;&lt;/span&gt;&amp;nbsp;выполняется если истина&lt;br&gt;&lt;b&gt;else :&lt;/b&gt;&lt;br&gt;&lt;span style=&quot;&quot;&gt;&lt;span style=&quot;white-space: pre;&quot;&gt;&amp;nbsp;&amp;nbsp;&amp;nbsp;&amp;nbsp;&lt;/span&gt;&lt;/span&gt;блок кода, который&lt;br&gt;&lt;span style=&quot;&quot;&gt;&lt;span style=&quot;white-space: pre;&quot;&gt;&amp;nbsp;&amp;nbsp;&amp;nbsp;&amp;nbsp;&lt;/span&gt;&lt;/span&gt;выполняется если ложь&lt;br&gt;&lt;br&gt;После условия и после else обязательно идёт двоеточие.&lt;br&gt;Блок кода в условном операторе пишется с отступом (табуляционный отступ). if и else пишутся на одном уровне." style="rounded=0;whiteSpace=wrap;html=1;align=left;fontFamily=consolas;spacing=5;verticalAlign=top;" vertex="1" parent="1">
          <mxGeometry x="260" y="-80" width="250" height="290" as="geometry" />
        </mxCell>
        <mxCell id="Ogy-xrGR_8rFZ8SFeMyS-4" value="&lt;b&gt;Условие &lt;/b&gt;должно выдавать логический результат, то есть Истина или Ложь.&lt;br&gt;x//2 - не условие, при деление получается число&lt;br&gt;x//2==0 - условие, при сравнении получается Истина или Ложь&lt;br&gt;&lt;br&gt;Условия можно объединять с помощью &lt;b&gt;логических операций&lt;/b&gt;:&lt;br&gt;and - и - истины должны быть оба условия&lt;br&gt;or - или - хотя бы одно условие должно быть истино&lt;br&gt;not - не - орицание, замена истины на ложь и наоборот&lt;br&gt;&lt;i&gt;Пример:&lt;br&gt;&lt;/i&gt;if a&amp;gt;b and a&amp;lt;c:&lt;br&gt;# Условие истинно если &lt;br&gt;# a больше b И a меньше c" style="rounded=0;whiteSpace=wrap;html=1;align=left;fontFamily=consolas;verticalAlign=top;spacing=5;" vertex="1" parent="1">
          <mxGeometry x="260" y="210" width="250" height="300" as="geometry" />
        </mxCell>
        <mxCell id="Ogy-xrGR_8rFZ8SFeMyS-25" value="&lt;div&gt;&lt;b&gt;Операторы сравнения&lt;/b&gt;:&lt;/div&gt;&lt;div&gt;&amp;lt; - меньше&lt;/div&gt;&lt;div&gt;&amp;gt; - больше&lt;/div&gt;&lt;div&gt;&amp;lt;= - меньше или равно&lt;/div&gt;&lt;div&gt;&amp;gt;= - больше или равно&lt;/div&gt;&lt;div&gt;== - равно&lt;/div&gt;&lt;div&gt;!= - не равно&lt;/div&gt;" style="rounded=0;whiteSpace=wrap;html=1;align=left;fontFamily=consolas;verticalAlign=top;spacing=5;" vertex="1" parent="1">
          <mxGeometry x="360" y="510" width="150" height="120" as="geometry" />
        </mxCell>
        <mxCell id="Ogy-xrGR_8rFZ8SFeMyS-27" value="&lt;b style=&quot;font-family: consolas;&quot;&gt;Встроенные функции&lt;/b&gt;&lt;font face=&quot;consolas&quot;&gt;:&lt;/font&gt;&lt;br&gt;&lt;b style=&quot;font-family: consolas;&quot;&gt;print()&lt;/b&gt;&lt;font face=&quot;consolas&quot;&gt; - вывод значений в консоль&lt;/font&gt;&lt;br&gt;&lt;font face=&quot;consolas&quot;&gt;Можете принимать несколько аргументов и выводить их через пробел.&lt;/font&gt;&lt;br&gt;&lt;i style=&quot;font-family: consolas;&quot;&gt;Пример:&lt;/i&gt;&lt;br&gt;&lt;font face=&quot;consolas&quot;&gt;print(&quot;Ответ:&quot;, 4, &quot;Конец&quot;) #&lt;/font&gt;&lt;br&gt;&lt;span style=&quot;font-family: consolas;&quot;&gt;&lt;span style=&quot;&quot;&gt;&amp;nbsp;&amp;nbsp;&amp;nbsp;&amp;nbsp;&lt;/span&gt;&lt;/span&gt;&lt;i style=&quot;font-family: consolas;&quot;&gt;Ответ: 4 Конец&lt;br&gt;&lt;/i&gt;&lt;font face=&quot;consolas&quot;&gt;Принимает аргументы &lt;/font&gt;&lt;i style=&quot;font-family: consolas;&quot;&gt;sep &lt;/i&gt;&lt;font face=&quot;consolas&quot;&gt;(по умолчанию пробел) и &lt;/font&gt;&lt;i style=&quot;font-family: consolas;&quot;&gt;end &lt;/i&gt;&lt;font face=&quot;consolas&quot;&gt;(по умолчанию переход на новую строку), которые устанавливает через как будет выводиться текст.&lt;/font&gt;&lt;br&gt;&lt;i style=&quot;&quot;&gt;&lt;font face=&quot;consolas&quot;&gt;Пример:&lt;/font&gt;&lt;br&gt;&lt;font face=&quot;consolas&quot;&gt;a=1&lt;br&gt;b=2&lt;br&gt;c=3&lt;br&gt;&lt;/font&gt;&lt;/i&gt;&lt;font face=&quot;consolas&quot;&gt;&lt;font style=&quot;border-color: var(--border-color);&quot;&gt;print(a, &quot;+&quot;, b, &quot;=&quot;, c)&lt;/font&gt;&amp;nbsp;#вывод через пробел&lt;br&gt;&lt;i style=&quot;&quot;&gt;&lt;span style=&quot;white-space: pre;&quot;&gt;&#x9;&lt;/span&gt;1 + 2 = 3&lt;br&gt;&lt;/i&gt;print(a, &quot;+&quot;, b, &quot;=&quot;, c, sep = &quot;&quot; ) #Вывод без пробела&lt;br&gt;&lt;span style=&quot;white-space: pre;&quot;&gt;&amp;nbsp;&amp;nbsp;&amp;nbsp;&amp;nbsp;&lt;span style=&quot;white-space: pre;&quot;&gt;&#x9;&lt;/span&gt;&lt;/span&gt;1+2=3&lt;/font&gt;&lt;br&gt;&lt;br&gt;&lt;br&gt;&lt;b style=&quot;font-family: consolas;&quot;&gt;input()&lt;/b&gt;&lt;font face=&quot;consolas&quot;&gt; - считывания введенной &lt;/font&gt;&lt;u style=&quot;font-family: consolas;&quot;&gt;строки&lt;/u&gt;&lt;font face=&quot;consolas&quot;&gt; с консоли. Воз Будет ждать пока в консоль будет что-то введено. В аргументы можно вписать подсказку, которая выведется в консоль.&amp;nbsp;&lt;/font&gt;&lt;br&gt;&lt;i style=&quot;font-family: consolas;&quot;&gt;Пример:&lt;br&gt;&lt;/i&gt;&lt;font face=&quot;consolas&quot;&gt;input(&quot;Введите число: &quot;)&lt;/font&gt;&lt;br&gt;&lt;span style=&quot;font-family: consolas;&quot;&gt;&lt;span style=&quot;&quot;&gt;&amp;nbsp;&amp;nbsp;&amp;nbsp;&amp;nbsp;&lt;/span&gt;&lt;/span&gt;&lt;i style=&quot;font-family: consolas;&quot;&gt;Введите число:&amp;nbsp;&lt;br&gt;&lt;/i&gt;&lt;br&gt;&lt;font face=&quot;consolas&quot;&gt;&lt;u&gt;Возвращает &lt;/u&gt;считанное значение.&lt;br&gt;&lt;i&gt;Пример:&lt;br&gt;&lt;/i&gt;a = input() # Записываем в переменную a&lt;br&gt;&lt;span style=&quot;&quot;&gt;&lt;span style=&quot;&quot;&gt;&amp;nbsp;&amp;nbsp;&amp;nbsp;&amp;nbsp;&lt;/span&gt;&lt;/span&gt;&lt;i&gt;Строка пользователя&lt;br&gt;&lt;/i&gt;print(a)&lt;br&gt;&lt;span style=&quot;&quot;&gt;&lt;span style=&quot;&quot;&gt;&amp;nbsp;&amp;nbsp;&amp;nbsp;&amp;nbsp;&lt;/span&gt;&lt;/span&gt;&lt;/font&gt;&lt;i style=&quot;border-color: var(--border-color); font-family: consolas;&quot;&gt;Строка пользователя&lt;/i&gt;&lt;font face=&quot;consolas&quot;&gt;&lt;br&gt;&lt;/font&gt;&lt;br&gt;&lt;font face=&quot;consolas&quot;&gt;&lt;b&gt;int(),float(),str(),bool()&lt;/b&gt; - преобразование к соответсвующему типу&lt;br&gt;&lt;/font&gt;&lt;i&gt;Пример, чтобы считать число нужно преобразовать считанную строку к численному типу:&lt;/i&gt;&lt;br&gt;a = int(input())&lt;br&gt;&lt;br&gt;&lt;font face=&quot;consolas&quot;&gt;type() - определить тип&lt;br&gt;&lt;br&gt;&lt;/font&gt;" style="rounded=0;whiteSpace=wrap;html=1;verticalAlign=top;align=left;spacing=5;" vertex="1" parent="1">
          <mxGeometry x="-340" y="510" width="390" height="620" as="geometry" />
        </mxCell>
        <mxCell id="Ogy-xrGR_8rFZ8SFeMyS-28" value="&lt;font face=&quot;consolas&quot;&gt;&lt;b&gt;Служебные символы:&lt;br&gt;&lt;/b&gt;\n - перенос на новую строку&lt;br&gt;&lt;i&gt;Пример:&lt;br&gt;&lt;/i&gt;print(&quot;Первая\nВторая&quot;)&lt;br&gt;&lt;/font&gt;&lt;blockquote style=&quot;margin: 0 0 0 40px; border: none; padding: 0px;&quot;&gt;&lt;/blockquote&gt;&lt;blockquote style=&quot;margin: 0 0 0 40px; border: none; padding: 0px;&quot;&gt;&lt;i&gt;&lt;span style=&quot;background-color: initial;&quot;&gt;Первая&lt;br&gt;&lt;/span&gt;Вторая&lt;/i&gt;&lt;/blockquote&gt;&lt;font face=&quot;consolas&quot;&gt;&lt;br&gt;\t - табуляционный отступ&lt;br&gt;&lt;i&gt;Пример:&lt;br&gt;&lt;/i&gt;&lt;/font&gt;&lt;font face=&quot;consolas&quot;&gt;print(&quot;До\tПосле&quot;)&lt;br&gt;&lt;/font&gt;&lt;font face=&quot;consolas&quot;&gt;&lt;span style=&quot;&quot;&gt;&lt;span style=&quot;white-space: pre;&quot;&gt;&amp;nbsp;&amp;nbsp;&amp;nbsp;&amp;nbsp;&lt;/span&gt;&lt;/span&gt;&lt;/font&gt;До&lt;span style=&quot;white-space: pre;&quot;&gt;&#x9;&lt;span style=&quot;white-space: pre;&quot;&gt;&#x9;&lt;/span&gt;&lt;/span&gt;После&amp;nbsp;" style="rounded=0;whiteSpace=wrap;html=1;verticalAlign=top;align=left;spacing=5;" vertex="1" parent="1">
          <mxGeometry x="50" y="510" width="200" height="180" as="geometry" />
        </mxCell>
        <mxCell id="Ogy-xrGR_8rFZ8SFeMyS-32" value="&lt;font face=&quot;consolas&quot;&gt;&lt;b&gt;Функции&lt;/b&gt; -&lt;b&gt;&amp;nbsp;&lt;/b&gt;&lt;/font&gt;&lt;font face=&quot;consolas&quot;&gt;фрагмент кода, который выполняет определённые операции и&amp;nbsp;возвращает результат.&lt;br&gt;В скобках в функцию передаются аргументы, с которыми функция работает&lt;br&gt;&lt;/font&gt;&lt;font face=&quot;consolas&quot;&gt;&lt;i style=&quot;&quot;&gt;Пример:&lt;br&gt;&lt;/i&gt;Название_функции(аргумент1, аргумент 2)&lt;br&gt;&lt;/font&gt;" style="rounded=0;whiteSpace=wrap;html=1;verticalAlign=top;align=left;spacing=5;" vertex="1" parent="1">
          <mxGeometry x="-340" y="380" width="290" height="130" as="geometry" />
        </mxCell>
        <mxCell id="Ogy-xrGR_8rFZ8SFeMyS-33" value="" style="endArrow=classic;html=1;rounded=0;" edge="1" parent="1">
          <mxGeometry width="50" height="50" relative="1" as="geometry">
            <mxPoint x="-131" y="974" as="sourcePoint" />
            <mxPoint x="-151" y="974" as="targetPoint" />
          </mxGeometry>
        </mxCell>
        <mxCell id="Ogy-xrGR_8rFZ8SFeMyS-34" value="Ввел пользователь" style="text;html=1;align=center;verticalAlign=middle;whiteSpace=wrap;rounded=0;fontFamily=consolas;" vertex="1" parent="1">
          <mxGeometry x="-141" y="964" width="140" height="20" as="geometry" />
        </mxCell>
        <mxCell id="Ogy-xrGR_8rFZ8SFeMyS-35" value="" style="endArrow=classic;html=1;rounded=0;" edge="1" parent="1">
          <mxGeometry width="50" height="50" relative="1" as="geometry">
            <mxPoint x="-131" y="1003" as="sourcePoint" />
            <mxPoint x="-151" y="1003" as="targetPoint" />
          </mxGeometry>
        </mxCell>
        <mxCell id="Ogy-xrGR_8rFZ8SFeMyS-36" value="Вывела программа" style="text;html=1;align=center;verticalAlign=middle;whiteSpace=wrap;rounded=0;fontFamily=consolas;" vertex="1" parent="1">
          <mxGeometry x="-141" y="993" width="140" height="20" as="geometry" />
        </mxCell>
        <mxCell id="Ogy-xrGR_8rFZ8SFeMyS-41" value="&lt;font face=&quot;consolas&quot;&gt;&lt;b style=&quot;&quot;&gt;Форматированные строки &lt;/b&gt;- удобно использовать для вывода.&lt;br&gt;Либо написать написать строку с {}, а потом через точку вызвать формат в котором указать какие значения вставить в {}&lt;br&gt;&lt;i style=&quot;&quot;&gt;Пример:&lt;br&gt;&lt;/i&gt;print(&quot;{}+{}={}&quot;.format(a, b, c))&lt;br&gt;&lt;i&gt;&lt;span style=&quot;&quot;&gt;&lt;span style=&quot;&quot;&gt;&amp;nbsp;&amp;nbsp;&amp;nbsp;&amp;nbsp;&lt;/span&gt;&lt;/span&gt;1+2=3&lt;br&gt;&lt;/i&gt;&lt;/font&gt;&lt;font face=&quot;consolas&quot;&gt;Либо написать f перед строкой и вставить значения внутрь {}&lt;br&gt;Пример:&lt;br&gt;&lt;/font&gt;&lt;font face=&quot;consolas&quot;&gt;print(f&quot;{a}+{b}={c}&quot;)&lt;/font&gt;&lt;br&gt;&lt;i style=&quot;font-family: consolas;&quot;&gt;&lt;span style=&quot;&quot;&gt;&lt;span style=&quot;&quot;&gt;&amp;nbsp;&amp;nbsp;&amp;nbsp;&amp;nbsp;&lt;/span&gt;&lt;/span&gt;1+2=3&lt;/i&gt;&lt;font face=&quot;consolas&quot;&gt;&lt;br&gt;&lt;/font&gt;" style="rounded=0;whiteSpace=wrap;html=1;verticalAlign=top;align=left;spacing=5;" vertex="1" parent="1">
          <mxGeometry x="50" y="690" width="250" height="220" as="geometry" />
        </mxCell>
        <mxCell id="Ogy-xrGR_8rFZ8SFeMyS-43" value="&lt;b&gt;Неполная форма&lt;/b&gt; условного оператора:&lt;br&gt;&lt;b style=&quot;border-color: var(--border-color);&quot;&gt;if&amp;nbsp;&lt;/b&gt;{условие}&lt;b style=&quot;border-color: var(--border-color);&quot;&gt;:&amp;nbsp;&lt;/b&gt;&lt;br style=&quot;border-color: var(--border-color);&quot;&gt;&lt;span style=&quot;white-space: pre;&quot;&gt;&#x9;&lt;/span&gt;блок кода, который&lt;br style=&quot;border-color: var(--border-color);&quot;&gt;&lt;span style=&quot;white-space: pre;&quot;&gt;&#x9;&lt;/span&gt;выполняется если истина&lt;br&gt;&lt;br&gt;else писать необязательно, если не нужно выполнять код, если условие ложно" style="rounded=0;whiteSpace=wrap;html=1;align=left;fontFamily=consolas;spacing=5;verticalAlign=top;" vertex="1" parent="1">
          <mxGeometry x="510" y="-80" width="290" height="120" as="geometry" />
        </mxCell>
        <mxCell id="Ogy-xrGR_8rFZ8SFeMyS-44" value="&lt;b&gt;Каскадная проверка условий:&lt;/b&gt;&lt;br&gt;&lt;b style=&quot;border-color: var(--border-color);&quot;&gt;if&amp;nbsp;&lt;/b&gt;{условие1}&lt;b style=&quot;border-color: var(--border-color);&quot;&gt;:&amp;nbsp;&lt;/b&gt;&lt;br style=&quot;border-color: var(--border-color);&quot;&gt;&lt;span style=&quot;white-space: pre;&quot;&gt;&#x9;&lt;/span&gt;блок кода, который&lt;br style=&quot;border-color: var(--border-color);&quot;&gt;&lt;span style=&quot;white-space: pre;&quot;&gt;&#x9;&lt;/span&gt;выполняется если условие1 истина&lt;br&gt;&lt;b&gt;elif&amp;nbsp;&lt;/b&gt;{условие2}&lt;b style=&quot;border-color: var(--border-color);&quot;&gt;:&amp;nbsp;&lt;/b&gt;&lt;br&gt;&lt;span style=&quot;white-space: pre;&quot;&gt;&#x9;&lt;/span&gt;блок кода, который&lt;br style=&quot;border-color: var(--border-color);&quot;&gt;&lt;span style=&quot;white-space: pre;&quot;&gt;&#x9;&lt;/span&gt;выполняется если условие2 истина&lt;br&gt;&lt;b style=&quot;border-color: var(--border-color);&quot;&gt;elif&amp;nbsp;&lt;/b&gt;{условие3}&lt;b style=&quot;border-color: var(--border-color);&quot;&gt;:&amp;nbsp;&lt;/b&gt;&lt;br style=&quot;border-color: var(--border-color);&quot;&gt;&lt;span style=&quot;white-space: pre;&quot;&gt;&#x9;&lt;/span&gt;блок кода, который&lt;br style=&quot;border-color: var(--border-color);&quot;&gt;&lt;span style=&quot;white-space: pre;&quot;&gt;&#x9;&lt;/span&gt;выполняется если условие3 истина&lt;br&gt;&lt;br&gt;Условие в elif проверятся если предыдщие условия не выполнились. Когда хоть одно условие выполнилось, условный оператор заканчивает работу.&lt;br&gt;Также как и else, elif писать необязательно, если он вам не нужно проверять несколько условий." style="rounded=0;whiteSpace=wrap;html=1;align=left;fontFamily=consolas;spacing=5;verticalAlign=top;" vertex="1" parent="1">
          <mxGeometry x="510" y="40" width="290" height="270" as="geometry" />
        </mxCell>
        <mxCell id="Ogy-xrGR_8rFZ8SFeMyS-45" value="&lt;b&gt;Вложенная проверка условий:&lt;/b&gt;&lt;br&gt;&lt;span style=&quot;border-color: var(--border-color);&quot;&gt;&lt;b&gt;if&amp;nbsp;&lt;/b&gt;&lt;/span&gt;{условие1}&lt;b style=&quot;border-color: var(--border-color);&quot;&gt;:&amp;nbsp;&lt;/b&gt;&lt;br style=&quot;border-color: var(--border-color);&quot;&gt;*отступ* &lt;b&gt;if &lt;/b&gt;{условие2}:&amp;nbsp;&lt;br&gt;*отступ**отступ*&amp;nbsp;&lt;i&gt;выполняется, если &lt;span style=&quot;&quot;&gt;&lt;span style=&quot;&quot;&gt;&amp;nbsp;&amp;nbsp;&amp;nbsp;&amp;nbsp;&lt;/span&gt;&lt;/span&gt;&lt;span style=&quot;&quot;&gt;&lt;span style=&quot;&quot;&gt;&amp;nbsp;&amp;nbsp;&amp;nbsp;&amp;nbsp;&lt;/span&gt;&lt;/span&gt;&amp;nbsp;&lt;span style=&quot;&quot;&gt;&lt;span style=&quot;white-space: pre;&quot;&gt;&amp;nbsp;&amp;nbsp;&amp;nbsp;&amp;nbsp;&lt;/span&gt;&lt;/span&gt;&amp;nbsp;&lt;span style=&quot;white-space: pre;&quot;&gt;&#x9;&amp;nbsp;&lt;/span&gt;условие1 и условие2&lt;br&gt;&lt;span style=&quot;&quot;&gt;&lt;span style=&quot;&quot;&gt;&amp;nbsp;&amp;nbsp;&amp;nbsp;&amp;nbsp;&lt;/span&gt;&lt;/span&gt;&lt;span style=&quot;&quot;&gt;&lt;span style=&quot;&quot;&gt;&amp;nbsp;&amp;nbsp;&amp;nbsp;&amp;nbsp;&lt;/span&gt;&lt;/span&gt;&amp;nbsp;&lt;span style=&quot;&quot;&gt;&lt;span style=&quot;white-space: pre;&quot;&gt;&amp;nbsp;&amp;nbsp;&amp;nbsp;&amp;nbsp;&lt;/span&gt;&lt;/span&gt;&amp;nbsp;&lt;span style=&quot;white-space: pre;&quot;&gt;&#x9;&lt;/span&gt;&amp;nbsp;истины&lt;br&gt;&lt;/i&gt;&lt;span style=&quot;&quot;&gt;&lt;span style=&quot;&quot;&gt;&amp;nbsp;&amp;nbsp;&amp;nbsp;&amp;nbsp;&lt;/span&gt;&lt;/span&gt;&amp;nbsp;&lt;span style=&quot;&quot;&gt;&lt;span style=&quot;white-space: pre;&quot;&gt;&amp;nbsp;&amp;nbsp;&amp;nbsp;&amp;nbsp;&lt;/span&gt;&lt;/span&gt;&amp;nbsp;&lt;b&gt;else&lt;/b&gt;:&lt;span style=&quot;&quot;&gt;&lt;span style=&quot;white-space: pre;&quot;&gt;&amp;nbsp;&amp;nbsp;&amp;nbsp;&amp;nbsp;&lt;/span&gt;&lt;/span&gt;&lt;span style=&quot;&quot;&gt;&lt;span style=&quot;white-space: pre;&quot;&gt;&amp;nbsp;&amp;nbsp;&amp;nbsp;&amp;nbsp;&lt;/span&gt;&lt;/span&gt;&lt;br&gt;&lt;span style=&quot;&quot;&gt;&lt;span style=&quot;white-space: pre;&quot;&gt;&amp;nbsp;&amp;nbsp;&amp;nbsp;&amp;nbsp;&lt;/span&gt;&lt;/span&gt;&lt;span style=&quot;&quot;&gt;&lt;span style=&quot;white-space: pre;&quot;&gt;&amp;nbsp;&amp;nbsp;&amp;nbsp;&amp;nbsp;&lt;span style=&quot;white-space: pre;&quot;&gt;&#x9;&lt;/span&gt; &lt;/span&gt;&lt;/span&gt;&lt;i&gt;выполняется, если &lt;span style=&quot;&quot;&gt;&lt;span style=&quot;white-space: pre;&quot;&gt;&amp;nbsp;&amp;nbsp;&amp;nbsp;&amp;nbsp;&lt;/span&gt;&lt;/span&gt;&lt;span style=&quot;&quot;&gt;&lt;span style=&quot;white-space: pre;&quot;&gt;&amp;nbsp;&amp;nbsp;&amp;nbsp;&amp;nbsp;&lt;/span&gt;&lt;/span&gt;&amp;nbsp;&lt;span style=&quot;white-space: pre;&quot;&gt;&#x9;&lt;/span&gt;&amp;nbsp;условие1&lt;span style=&quot;&quot;&gt;&lt;span style=&quot;&quot;&gt;&amp;nbsp;&lt;/span&gt;&lt;/span&gt;истино, а &lt;span style=&quot;&quot;&gt;&lt;span style=&quot;white-space: pre;&quot;&gt;&amp;nbsp;&amp;nbsp;&amp;nbsp;&amp;nbsp;&lt;/span&gt;&lt;/span&gt;&lt;span style=&quot;&quot;&gt;&lt;span style=&quot;white-space: pre;&quot;&gt;&amp;nbsp;&amp;nbsp;&amp;nbsp;&amp;nbsp;&lt;/span&gt;&lt;/span&gt;&amp;nbsp;&lt;span style=&quot;white-space: pre;&quot;&gt;&#x9;&lt;/span&gt;&amp;nbsp;условие2 ложно&lt;br&gt;&lt;/i&gt;&lt;b&gt;else&lt;/b&gt;:&amp;nbsp;&lt;br&gt;&lt;span style=&quot;&quot;&gt;&lt;span style=&quot;&quot;&gt;&amp;nbsp; &amp;nbsp;&lt;span style=&quot;white-space: pre;&quot;&gt;&#x9;&lt;/span&gt;&lt;i&gt;выполняется если условие1 ложно&lt;/i&gt;&lt;/span&gt;&lt;/span&gt;&lt;br&gt;&lt;div&gt;&lt;br&gt;&lt;/div&gt;&lt;div&gt;Внутри условного оператора можно расположить еще условные операторы.&amp;nbsp;&lt;/div&gt;&lt;div&gt;С каждым уровнем вложенности увеличивается отступ.&lt;/div&gt;" style="rounded=0;whiteSpace=wrap;html=1;align=left;fontFamily=consolas;spacing=5;verticalAlign=top;" vertex="1" parent="1">
          <mxGeometry x="510" y="310" width="290" height="270" as="geometry" />
        </mxCell>
        <mxCell id="Ogy-xrGR_8rFZ8SFeMyS-1" value="&lt;div&gt;&lt;font face=&quot;consolas&quot;&gt;&lt;b&gt;Комментарии &lt;/b&gt;пишится для большей понятности кода. Не влияют на ход программы.&lt;br&gt;&lt;/font&gt;&lt;/div&gt;&lt;div&gt;&lt;font face=&quot;consolas&quot;&gt;#Однострочный комментарий&lt;/font&gt;&lt;/div&gt;&lt;div&gt;&lt;font face=&quot;consolas&quot;&gt;&#39;&#39;&#39; Много-&lt;/font&gt;&lt;/div&gt;&lt;div&gt;&lt;font face=&quot;consolas&quot;&gt;строчный&lt;/font&gt;&lt;/div&gt;&lt;div&gt;&lt;font face=&quot;consolas&quot;&gt;комментарий&amp;nbsp;&lt;/font&gt;&lt;span style=&quot;font-family: consolas; background-color: initial;&quot;&gt;&#39;&#39;&#39;&lt;/span&gt;&lt;/div&gt;&lt;div&gt;&lt;font face=&quot;consolas&quot;&gt;&lt;br&gt;&lt;/font&gt;&lt;/div&gt;" style="rounded=0;whiteSpace=wrap;html=1;align=left;spacing=5;verticalAlign=top;" vertex="1" parent="1">
          <mxGeometry x="-340" y="-80" width="210" height="110" as="geometry" />
        </mxCell>
        <mxCell id="Ogy-xrGR_8rFZ8SFeMyS-2" value="&lt;div&gt;&lt;b&gt;Типы&lt;/b&gt;:&lt;/div&gt;&lt;div&gt;4 - int (Целочисленный)&lt;/div&gt;&lt;div&gt;5.7 - float (Вещественный)&lt;/div&gt;&lt;div&gt;&quot;Абвгд&quot; - str (Строка)&lt;/div&gt;&lt;div&gt;True/False - bool (Логический)&lt;/div&gt;" style="rounded=0;whiteSpace=wrap;html=1;align=left;fontFamily=consolas;spacing=5;" vertex="1" parent="1">
          <mxGeometry x="-340" y="30" width="210" height="80" as="geometry" />
        </mxCell>
        <mxCell id="Ogy-xrGR_8rFZ8SFeMyS-31" value="&lt;font face=&quot;consolas&quot;&gt;&lt;b&gt;Имена переменных:&lt;br&gt;&lt;/b&gt;1. Имя переменной может только содержать буквы, цифры и знак подчеркивания (A-Z, a-z, 0-9, _)&lt;br&gt;2. Имя переменной должно начинаться с буквы или символа подчеркивания&lt;br&gt;3. Имена переменных чувствительны к регистру&lt;/font&gt;&lt;font face=&quot;consolas&quot;&gt;&lt;br&gt;&lt;/font&gt;" style="rounded=0;whiteSpace=wrap;html=1;align=left;verticalAlign=top;spacing=5;" vertex="1" parent="1">
          <mxGeometry x="-50" y="110" width="310" height="120" as="geometry" />
        </mxCell>
        <mxCell id="Ogy-xrGR_8rFZ8SFeMyS-37" value="" style="group;align=left;" vertex="1" connectable="0" parent="1">
          <mxGeometry x="-130" y="-80" width="210" height="190" as="geometry" />
        </mxCell>
        <mxCell id="Ogy-xrGR_8rFZ8SFeMyS-5" value="&lt;div&gt;&lt;b&gt;Математические операторы&lt;/b&gt;:&lt;/div&gt;&lt;div&gt;+ - сложение&lt;/div&gt;&lt;div&gt;- - вычитание&lt;/div&gt;&lt;div&gt;* - умножение&lt;/div&gt;&lt;div&gt;/ - деление&lt;/div&gt;&lt;div&gt;** - возведение в степень&lt;/div&gt;&lt;div&gt;&lt;br&gt;&lt;/div&gt;&lt;div&gt;% - остаток от деления&lt;/div&gt;&lt;div&gt;// - целочисленное деление&lt;/div&gt;&lt;div&gt;&lt;i&gt;Пример:&lt;/i&gt;&lt;/div&gt;&lt;div&gt;&lt;br&gt;&lt;/div&gt;" style="rounded=0;whiteSpace=wrap;html=1;align=left;fontFamily=consolas;verticalAlign=top;spacing=5;" vertex="1" parent="Ogy-xrGR_8rFZ8SFeMyS-37">
          <mxGeometry width="210" height="190" as="geometry" />
        </mxCell>
        <mxCell id="Ogy-xrGR_8rFZ8SFeMyS-6" value="&lt;font style=&quot;font-size: 13px;&quot; face=&quot;consolas&quot;&gt;18&lt;br&gt;14&lt;br&gt;&lt;/font&gt;&lt;div style=&quot;text-align: right; font-size: 13px;&quot;&gt;&lt;span style=&quot;background-color: initial;&quot;&gt;&lt;font style=&quot;font-size: 13px;&quot; face=&quot;Tw0do12vzcIXziiYkD_1&quot;&gt;4&lt;/font&gt;&lt;/span&gt;&lt;/div&gt;" style="text;html=1;align=center;verticalAlign=top;whiteSpace=wrap;rounded=0;horizontal=1;spacing=5;" vertex="1" parent="Ogy-xrGR_8rFZ8SFeMyS-37">
          <mxGeometry x="49" y="132" width="30" height="38" as="geometry" />
        </mxCell>
        <mxCell id="Ogy-xrGR_8rFZ8SFeMyS-7" value="" style="endArrow=none;html=1;rounded=0;exitX=0;exitY=0.75;exitDx=0;exitDy=0;spacing=5;" edge="1" parent="Ogy-xrGR_8rFZ8SFeMyS-37" source="Ogy-xrGR_8rFZ8SFeMyS-12">
          <mxGeometry width="50" height="50" relative="1" as="geometry">
            <mxPoint x="79" y="152" as="sourcePoint" />
            <mxPoint x="79" y="140" as="targetPoint" />
          </mxGeometry>
        </mxCell>
        <mxCell id="Ogy-xrGR_8rFZ8SFeMyS-8" value="" style="endArrow=none;html=1;rounded=0;spacing=5;" edge="1" parent="Ogy-xrGR_8rFZ8SFeMyS-37">
          <mxGeometry width="50" height="50" relative="1" as="geometry">
            <mxPoint x="109" y="152" as="sourcePoint" />
            <mxPoint x="79" y="152" as="targetPoint" />
          </mxGeometry>
        </mxCell>
        <mxCell id="Ogy-xrGR_8rFZ8SFeMyS-10" value="7" style="text;html=1;align=center;verticalAlign=middle;whiteSpace=wrap;rounded=0;fontFamily=consolas;spacing=5;" vertex="1" parent="Ogy-xrGR_8rFZ8SFeMyS-37">
          <mxGeometry x="84" y="136" width="10" height="20" as="geometry" />
        </mxCell>
        <mxCell id="Ogy-xrGR_8rFZ8SFeMyS-12" value="2" style="text;html=1;align=center;verticalAlign=middle;whiteSpace=wrap;rounded=0;fontFamily=consolas;spacing=5;" vertex="1" parent="Ogy-xrGR_8rFZ8SFeMyS-37">
          <mxGeometry x="79" y="152" width="20" height="20" as="geometry" />
        </mxCell>
        <mxCell id="Ogy-xrGR_8rFZ8SFeMyS-14" value="" style="endArrow=none;html=1;rounded=0;spacing=5;" edge="1" parent="Ogy-xrGR_8rFZ8SFeMyS-37">
          <mxGeometry width="50" height="50" relative="1" as="geometry">
            <mxPoint x="59" y="156" as="sourcePoint" />
            <mxPoint x="53" y="156" as="targetPoint" />
          </mxGeometry>
        </mxCell>
        <mxCell id="Ogy-xrGR_8rFZ8SFeMyS-15" value="" style="endArrow=none;html=1;rounded=0;exitX=0.273;exitY=0.967;exitDx=0;exitDy=0;exitPerimeter=0;spacing=5;" edge="1" parent="Ogy-xrGR_8rFZ8SFeMyS-37">
          <mxGeometry width="50" height="50" relative="1" as="geometry">
            <mxPoint x="57.190000000000055" y="171.74599999999998" as="sourcePoint" />
            <mxPoint x="70" y="171.89999999999998" as="targetPoint" />
          </mxGeometry>
        </mxCell>
        <mxCell id="Ogy-xrGR_8rFZ8SFeMyS-17" value="" style="endArrow=classic;html=1;rounded=0;entryX=1;entryY=0.5;entryDx=0;entryDy=0;spacing=5;" edge="1" parent="Ogy-xrGR_8rFZ8SFeMyS-37" target="Ogy-xrGR_8rFZ8SFeMyS-12">
          <mxGeometry width="50" height="50" relative="1" as="geometry">
            <mxPoint x="119" y="162" as="sourcePoint" />
            <mxPoint x="99" y="182" as="targetPoint" />
          </mxGeometry>
        </mxCell>
        <mxCell id="Ogy-xrGR_8rFZ8SFeMyS-18" value="целое" style="text;html=1;align=center;verticalAlign=middle;whiteSpace=wrap;rounded=0;fontFamily=consolas;spacing=5;" vertex="1" parent="Ogy-xrGR_8rFZ8SFeMyS-37">
          <mxGeometry x="129" y="152" width="20" height="20" as="geometry" />
        </mxCell>
        <mxCell id="Ogy-xrGR_8rFZ8SFeMyS-20" value="остаток" style="text;html=1;align=center;verticalAlign=top;whiteSpace=wrap;rounded=0;fontFamily=consolas;spacing=5;" vertex="1" parent="Ogy-xrGR_8rFZ8SFeMyS-37">
          <mxGeometry x="111" y="163" width="20" height="20" as="geometry" />
        </mxCell>
        <mxCell id="Ogy-xrGR_8rFZ8SFeMyS-23" value="" style="endArrow=classic;html=1;rounded=0;entryX=1;entryY=0.5;entryDx=0;entryDy=0;spacing=5;" edge="1" parent="Ogy-xrGR_8rFZ8SFeMyS-37">
          <mxGeometry width="50" height="50" relative="1" as="geometry">
            <mxPoint x="95" y="178" as="sourcePoint" />
            <mxPoint x="75" y="178" as="targetPoint" />
          </mxGeometry>
        </mxCell>
        <mxCell id="Ogy-xrGR_8rFZ8SFeMyS-38" value="&lt;font face=&quot;consolas&quot;&gt;&lt;b&gt;Переменная &lt;/b&gt;– это величина, имеющая имя, тип и значение. &lt;br&gt;Мы даем участку памяти имя и можем по этому имени к нему обращаться.&lt;br&gt;Значение переменной&lt;br&gt;можно изменять во время работы программы.Значение переменной можно изменять с учетом текущего значения переменной.&lt;br&gt;&lt;i&gt;Пример:&lt;br&gt;&lt;/i&gt;&lt;/font&gt;&lt;font face=&quot;consolas&quot;&gt;a = 3&lt;br&gt;b = a + 2 &lt;span style=&quot;white-space: pre;&quot;&gt;&#x9;&lt;/span&gt;&lt;span style=&quot;white-space: pre;&quot;&gt;&#x9;&lt;/span&gt;&lt;i&gt;#b=3+2=5&lt;/i&gt;&lt;br&gt;a = (a + 3)*(b - 2) &lt;span style=&quot;white-space: pre;&quot;&gt;&#x9;&lt;/span&gt;&lt;i&gt;#a=6*3=18&lt;/i&gt;&lt;br&gt;b = b + 1&lt;i&gt; &lt;span style=&quot;white-space: pre;&quot;&gt;&#x9;&lt;/span&gt;&lt;span style=&quot;white-space: pre;&quot;&gt;&#x9;&lt;/span&gt;#b=5+1=6&lt;/i&gt;&lt;br&gt;print(a,b)&lt;br&gt;&lt;/font&gt;&lt;font face=&quot;consolas&quot;&gt;&lt;span style=&quot;&quot;&gt;&lt;span style=&quot;white-space: pre;&quot;&gt;&amp;nbsp;&amp;nbsp;&amp;nbsp;&amp;nbsp;&lt;i&gt;18 6&lt;/i&gt;&lt;/span&gt;&lt;/span&gt;&lt;br&gt;&lt;/font&gt;" style="rounded=0;whiteSpace=wrap;html=1;align=left;verticalAlign=top;spacing=5;" vertex="1" parent="1">
          <mxGeometry x="-340" y="110" width="290" height="270" as="geometry" />
        </mxCell>
        <mxCell id="Ogy-xrGR_8rFZ8SFeMyS-26" value="&lt;font face=&quot;consolas&quot;&gt;&lt;b&gt;Операторы&lt;/b&gt;:&lt;br&gt;= - оператор присваивания&lt;br&gt;&lt;i&gt;Пример:&lt;br&gt;&lt;/i&gt;a = 4 # присваиваем переменной с именем a значение 4&lt;br&gt;&lt;br&gt;() - оператор вызова&lt;br&gt;&lt;i&gt;Пример:&lt;br&gt;&lt;/i&gt;print&lt;u&gt;()&lt;/u&gt; - вызов функции для вывода в консоль&lt;br&gt;&lt;/font&gt;" style="rounded=0;whiteSpace=wrap;html=1;align=left;verticalAlign=top;spacing=5;" vertex="1" parent="1">
          <mxGeometry x="-50" y="230" width="310" height="140" as="geometry" />
        </mxCell>
        <mxCell id="Ogy-xrGR_8rFZ8SFeMyS-61" value="&lt;font face=&quot;consolas&quot;&gt;&lt;b&gt;Программа - алгоритм действий для компьютера, который позволит решить задание.&lt;br&gt;&lt;br&gt;&lt;/b&gt;&lt;/font&gt;&lt;b style=&quot;border-color: var(--border-color); font-family: consolas;&quot;&gt;Программы пишутся для выполнения задания, а не для выполнения примера к заданию.&lt;br&gt;&lt;/b&gt;&lt;font face=&quot;consolas&quot;&gt;&lt;br&gt;&lt;/font&gt;" style="rounded=0;whiteSpace=wrap;html=1;align=left;verticalAlign=top;spacing=5;" vertex="1" parent="1">
          <mxGeometry x="80" y="-80" width="180" height="190" as="geometry" />
        </mxCell>
        <mxCell id="Ogy-xrGR_8rFZ8SFeMyS-63" value="&lt;span style=&quot;border-color: var(--border-color); font-family: consolas;&quot;&gt;Весь код начинается с начала строки. Язык Python чувствителен к отступам.&lt;/span&gt;&lt;font face=&quot;consolas&quot;&gt;&lt;br&gt;&lt;/font&gt;" style="rounded=0;whiteSpace=wrap;html=1;align=left;verticalAlign=top;spacing=5;" vertex="1" parent="1">
          <mxGeometry x="-340" y="-110" width="500" height="30" as="geometry" />
        </mxCell>
      </root>
    </mxGraphModel>
  </diagram>
</mxfile>
